<svg xmlns="http://www.w3.org/2000/svg" xmlns:xlink="http://www.w3.org/1999/xlink" width="500" zoomAndPan="magnify" viewBox="0 0 375 374.999991" height="500" preserveAspectRatio="xMidYMid meet" version="1.0"><defs><g/><clipPath id="29c12e0d80"><path d="M 231.558594 157 L 277 157 L 277 213.554688 L 231.558594 213.554688 Z M 231.558594 157 " clip-rule="nonzero"/></clipPath><clipPath id="9cea82581a"><path d="M 275 140.804688 L 300.558594 140.804688 L 300.558594 167 L 275 167 Z M 275 140.804688 " clip-rule="nonzero"/></clipPath></defs><rect x="-37.5" width="450" fill="#ffffff" y="-37.499999" height="449.999989" fill-opacity="1"/><rect x="-37.5" width="450" fill="#ffffff" y="-37.499999" height="449.999989" fill-opacity="1"/><rect x="-37.5" width="450" fill="#ffffff" y="-37.499999" height="449.999989" fill-opacity="1"/><g fill="#8c82fc" fill-opacity="1"><g transform="translate(72.115385, 228.245169)"><g><path d="M 18.4375 -1.9375 L 18.4375 0 L 3.453125 0 L 3.453125 -21.203125 L 17.984375 -21.203125 L 17.984375 -19.265625 L 5.6875 -19.265625 L 5.6875 -11.71875 L 16.65625 -11.71875 L 16.65625 -9.8125 L 5.6875 -9.8125 L 5.6875 -1.9375 Z M 18.4375 -1.9375 "/></g></g></g><g fill="#8c82fc" fill-opacity="1"><g transform="translate(92.378391, 228.245169)"><g><path d="M 8.5625 -16.046875 C 10.644531 -16.046875 12.238281 -15.523438 13.34375 -14.484375 C 14.457031 -13.453125 15.015625 -11.914062 15.015625 -9.875 L 15.015625 0 L 12.953125 0 L 12.953125 -2.484375 C 12.472656 -1.648438 11.765625 -1 10.828125 -0.53125 C 9.890625 -0.0703125 8.773438 0.15625 7.484375 0.15625 C 5.703125 0.15625 4.285156 -0.265625 3.234375 -1.109375 C 2.191406 -1.960938 1.671875 -3.085938 1.671875 -4.484375 C 1.671875 -5.835938 2.160156 -6.925781 3.140625 -7.75 C 4.117188 -8.582031 5.675781 -9 7.8125 -9 L 12.875 -9 L 12.875 -9.96875 C 12.875 -11.332031 12.488281 -12.375 11.71875 -13.09375 C 10.945312 -13.8125 9.828125 -14.171875 8.359375 -14.171875 C 7.347656 -14.171875 6.378906 -14.003906 5.453125 -13.671875 C 4.523438 -13.335938 3.726562 -12.878906 3.0625 -12.296875 L 2.09375 -13.90625 C 2.894531 -14.582031 3.859375 -15.109375 4.984375 -15.484375 C 6.117188 -15.859375 7.3125 -16.046875 8.5625 -16.046875 Z M 7.8125 -1.546875 C 9.019531 -1.546875 10.054688 -1.820312 10.921875 -2.375 C 11.796875 -2.925781 12.445312 -3.726562 12.875 -4.78125 L 12.875 -7.390625 L 7.875 -7.390625 C 5.144531 -7.390625 3.78125 -6.441406 3.78125 -4.546875 C 3.78125 -3.617188 4.132812 -2.882812 4.84375 -2.34375 C 5.550781 -1.8125 6.539062 -1.546875 7.8125 -1.546875 Z M 7.8125 -1.546875 "/></g></g></g><g fill="#8c82fc" fill-opacity="1"><g transform="translate(110.248604, 228.245169)"><g><path d="M 7.265625 0.15625 C 5.972656 0.15625 4.734375 -0.03125 3.546875 -0.40625 C 2.367188 -0.78125 1.445312 -1.25 0.78125 -1.8125 L 1.75 -3.515625 C 2.414062 -2.984375 3.253906 -2.550781 4.265625 -2.21875 C 5.273438 -1.882812 6.328125 -1.71875 7.421875 -1.71875 C 8.867188 -1.71875 9.941406 -1.945312 10.640625 -2.40625 C 11.335938 -2.863281 11.6875 -3.503906 11.6875 -4.328125 C 11.6875 -4.910156 11.492188 -5.367188 11.109375 -5.703125 C 10.722656 -6.035156 10.238281 -6.285156 9.65625 -6.453125 C 9.070312 -6.628906 8.296875 -6.800781 7.328125 -6.96875 C 6.035156 -7.207031 4.992188 -7.453125 4.203125 -7.703125 C 3.421875 -7.953125 2.75 -8.378906 2.1875 -8.984375 C 1.632812 -9.597656 1.359375 -10.4375 1.359375 -11.5 C 1.359375 -12.832031 1.910156 -13.921875 3.015625 -14.765625 C 4.128906 -15.617188 5.675781 -16.046875 7.65625 -16.046875 C 8.6875 -16.046875 9.71875 -15.910156 10.75 -15.640625 C 11.78125 -15.367188 12.628906 -15.007812 13.296875 -14.5625 L 12.359375 -12.84375 C 11.046875 -13.75 9.476562 -14.203125 7.65625 -14.203125 C 6.289062 -14.203125 5.257812 -13.957031 4.5625 -13.46875 C 3.863281 -12.988281 3.515625 -12.351562 3.515625 -11.5625 C 3.515625 -10.957031 3.707031 -10.472656 4.09375 -10.109375 C 4.488281 -9.742188 4.976562 -9.472656 5.5625 -9.296875 C 6.15625 -9.128906 6.96875 -8.957031 8 -8.78125 C 9.269531 -8.539062 10.285156 -8.296875 11.046875 -8.046875 C 11.816406 -7.804688 12.472656 -7.394531 13.015625 -6.8125 C 13.566406 -6.226562 13.84375 -5.421875 13.84375 -4.390625 C 13.84375 -2.992188 13.257812 -1.882812 12.09375 -1.0625 C 10.9375 -0.25 9.328125 0.15625 7.265625 0.15625 Z M 7.265625 0.15625 "/></g></g></g><g fill="#8c82fc" fill-opacity="1"><g transform="translate(125.059678, 228.245169)"><g><path d="M 16.375 -15.921875 L 8.421875 1.90625 C 7.773438 3.40625 7.023438 4.46875 6.171875 5.09375 C 5.328125 5.71875 4.3125 6.03125 3.125 6.03125 C 2.351562 6.03125 1.632812 5.90625 0.96875 5.65625 C 0.300781 5.414062 -0.269531 5.054688 -0.75 4.578125 L 0.25 2.96875 C 1.050781 3.769531 2.019531 4.171875 3.15625 4.171875 C 3.875 4.171875 4.488281 3.96875 5 3.5625 C 5.519531 3.164062 6.003906 2.484375 6.453125 1.515625 L 7.140625 -0.03125 L 0.03125 -15.921875 L 2.265625 -15.921875 L 8.265625 -2.390625 L 14.265625 -15.921875 Z M 16.375 -15.921875 "/></g></g></g><g fill="#8c82fc" fill-opacity="1"><g transform="translate(141.47604, 228.245169)"><g><path d="M 16.8125 -10.9375 C 18.195312 -10.632812 19.269531 -10.03125 20.03125 -9.125 C 20.789062 -8.226562 21.171875 -7.070312 21.171875 -5.65625 C 21.171875 -3.84375 20.5 -2.445312 19.15625 -1.46875 C 17.8125 -0.488281 15.828125 0 13.203125 0 L 3.453125 0 L 3.453125 -21.203125 L 12.59375 -21.203125 C 14.957031 -21.203125 16.789062 -20.722656 18.09375 -19.765625 C 19.394531 -18.816406 20.046875 -17.476562 20.046875 -15.75 C 20.046875 -14.570312 19.753906 -13.570312 19.171875 -12.75 C 18.597656 -11.9375 17.8125 -11.332031 16.8125 -10.9375 Z M 5.6875 -19.34375 L 5.6875 -11.65625 L 12.453125 -11.65625 C 14.160156 -11.65625 15.476562 -11.984375 16.40625 -12.640625 C 17.34375 -13.296875 17.8125 -14.25 17.8125 -15.5 C 17.8125 -16.75 17.34375 -17.703125 16.40625 -18.359375 C 15.476562 -19.015625 14.160156 -19.34375 12.453125 -19.34375 Z M 13.171875 -1.84375 C 15.066406 -1.84375 16.5 -2.164062 17.46875 -2.8125 C 18.4375 -3.457031 18.921875 -4.46875 18.921875 -5.84375 C 18.921875 -8.488281 17.003906 -9.8125 13.171875 -9.8125 L 5.6875 -9.8125 L 5.6875 -1.84375 Z M 13.171875 -1.84375 "/></g></g></g><g fill="#8c82fc" fill-opacity="1"><g transform="translate(164.313571, 228.245169)"><g><path d="M 17.34375 -15.921875 L 17.34375 0 L 15.296875 0 L 15.296875 -2.90625 C 14.722656 -1.9375 13.941406 -1.179688 12.953125 -0.640625 C 11.972656 -0.109375 10.84375 0.15625 9.5625 0.15625 C 7.488281 0.15625 5.847656 -0.421875 4.640625 -1.578125 C 3.441406 -2.742188 2.84375 -4.445312 2.84375 -6.6875 L 2.84375 -15.921875 L 5 -15.921875 L 5 -6.90625 C 5 -5.226562 5.410156 -3.953125 6.234375 -3.078125 C 7.066406 -2.210938 8.25 -1.78125 9.78125 -1.78125 C 11.457031 -1.78125 12.78125 -2.289062 13.75 -3.3125 C 14.71875 -4.332031 15.203125 -5.753906 15.203125 -7.578125 L 15.203125 -15.921875 Z M 17.34375 -15.921875 "/></g></g></g><g fill="#8c82fc" fill-opacity="1"><g transform="translate(184.697731, 228.245169)"><g><path d="M 16.375 -15.921875 L 8.421875 1.90625 C 7.773438 3.40625 7.023438 4.46875 6.171875 5.09375 C 5.328125 5.71875 4.3125 6.03125 3.125 6.03125 C 2.351562 6.03125 1.632812 5.90625 0.96875 5.65625 C 0.300781 5.414062 -0.269531 5.054688 -0.75 4.578125 L 0.25 2.96875 C 1.050781 3.769531 2.019531 4.171875 3.15625 4.171875 C 3.875 4.171875 4.488281 3.96875 5 3.5625 C 5.519531 3.164062 6.003906 2.484375 6.453125 1.515625 L 7.140625 -0.03125 L 0.03125 -15.921875 L 2.265625 -15.921875 L 8.265625 -2.390625 L 14.265625 -15.921875 Z M 16.375 -15.921875 "/></g></g></g><g fill="#8c82fc" fill-opacity="1"><g transform="translate(201.114093, 228.245169)"><g><path d="M 16.859375 -7.296875 L 3.546875 -7.296875 C 3.660156 -5.640625 4.289062 -4.300781 5.4375 -3.28125 C 6.59375 -2.257812 8.050781 -1.75 9.8125 -1.75 C 10.800781 -1.75 11.707031 -1.925781 12.53125 -2.28125 C 13.363281 -2.632812 14.082031 -3.15625 14.6875 -3.84375 L 15.890625 -2.453125 C 15.191406 -1.609375 14.3125 -0.960938 13.25 -0.515625 C 12.1875 -0.0664062 11.019531 0.15625 9.75 0.15625 C 8.113281 0.15625 6.664062 -0.191406 5.40625 -0.890625 C 4.144531 -1.585938 3.160156 -2.550781 2.453125 -3.78125 C 1.742188 -5.007812 1.390625 -6.40625 1.390625 -7.96875 C 1.390625 -9.519531 1.726562 -10.910156 2.40625 -12.140625 C 3.082031 -13.367188 4.007812 -14.328125 5.1875 -15.015625 C 6.375 -15.703125 7.703125 -16.046875 9.171875 -16.046875 C 10.648438 -16.046875 11.972656 -15.703125 13.140625 -15.015625 C 14.304688 -14.328125 15.222656 -13.375 15.890625 -12.15625 C 16.554688 -10.9375 16.890625 -9.539062 16.890625 -7.96875 Z M 9.171875 -14.203125 C 7.640625 -14.203125 6.351562 -13.710938 5.3125 -12.734375 C 4.269531 -11.753906 3.679688 -10.476562 3.546875 -8.90625 L 14.84375 -8.90625 C 14.695312 -10.476562 14.101562 -11.753906 13.0625 -12.734375 C 12.019531 -13.710938 10.722656 -14.203125 9.171875 -14.203125 Z M 9.171875 -14.203125 "/></g></g></g><g fill="#8c82fc" fill-opacity="1"><g transform="translate(219.408342, 228.245169)"><g><path d="M 5.0625 -12.8125 C 5.5625 -13.875 6.3125 -14.675781 7.3125 -15.21875 C 8.3125 -15.769531 9.546875 -16.046875 11.015625 -16.046875 L 11.015625 -13.953125 L 10.5 -13.984375 C 8.832031 -13.984375 7.519531 -13.46875 6.5625 -12.4375 C 5.613281 -11.414062 5.140625 -9.972656 5.140625 -8.109375 L 5.140625 0 L 3 0 L 3 -15.921875 L 5.0625 -15.921875 Z M 5.0625 -12.8125 "/></g></g></g><g clip-path="url(#29c12e0d80)"><path fill="#8c82fc" d="M 276.425781 160.78125 C 274.421875 161.605469 271.257812 162.167969 269.085938 162.300781 C 268.375 162.34375 268.953125 161.9375 269.421875 161.472656 C 269.773438 161.125 271.605469 160.113281 272.035156 159.867188 C 273.636719 158.949219 274.085938 158.542969 275.777344 157.8125 Z M 264.402344 162.640625 C 263.734375 162.710938 263.09375 162.894531 262.46875 163.117188 C 261.859375 163.335938 261.207031 163.578125 260.683594 163.96875 C 260.507812 164.101562 260.375 164.230469 260.316406 164.449219 C 260.261719 164.640625 260.285156 164.898438 260.398438 165.070312 C 260.609375 165.398438 261.132812 165.625 261.492188 165.355469 C 261.695312 165.203125 261.925781 165.085938 262.152344 164.972656 C 262.21875 164.941406 262.289062 164.914062 262.351562 164.882812 C 262.371094 164.871094 262.398438 164.859375 262.421875 164.851562 C 262.378906 164.867188 262.351562 164.875 262.425781 164.84375 C 262.441406 164.839844 262.457031 164.828125 262.472656 164.824219 C 262.464844 164.832031 262.449219 164.839844 262.433594 164.84375 C 262.585938 164.78125 262.734375 164.722656 262.890625 164.667969 C 263.183594 164.5625 263.484375 164.464844 263.789062 164.382812 C 263.925781 164.347656 264.066406 164.308594 264.203125 164.28125 C 264.261719 164.273438 264.324219 164.261719 264.382812 164.25 C 264.34375 164.257812 264.324219 164.257812 264.398438 164.246094 C 264.617188 164.21875 264.804688 164.171875 264.964844 164.011719 C 265.101562 163.871094 265.207031 163.640625 265.199219 163.445312 C 265.183594 163.054688 264.84375 162.59375 264.402344 162.640625 Z M 264.390625 164.25 C 264.398438 164.25 264.417969 164.246094 264.433594 164.246094 C 264.417969 164.246094 264.398438 164.25 264.386719 164.25 C 264.386719 164.25 264.386719 164.25 264.390625 164.25 Z M 264.488281 164.234375 C 264.484375 164.242188 264.460938 164.242188 264.441406 164.246094 C 264.457031 164.246094 264.476562 164.242188 264.488281 164.234375 Z M 254.507812 166.554688 C 255.832031 166.761719 257.164062 166.726562 258.472656 166.398438 C 258.878906 166.296875 259.164062 165.816406 259.035156 165.410156 C 258.894531 164.988281 258.484375 164.742188 258.046875 164.851562 C 257.765625 164.917969 257.476562 164.976562 257.1875 165.019531 C 257.183594 165.027344 257.175781 165.027344 257.171875 165.027344 C 257.160156 165.03125 257.148438 165.03125 257.132812 165.03125 C 257.066406 165.035156 257 165.046875 256.929688 165.050781 C 256.785156 165.070312 256.636719 165.078125 256.492188 165.085938 C 256.210938 165.09375 255.933594 165.09375 255.648438 165.078125 C 255.511719 165.070312 255.375 165.058594 255.242188 165.046875 C 255.175781 165.042969 255.109375 165.03125 255.039062 165.027344 C 255.003906 165.019531 254.960938 165.015625 254.921875 165.011719 C 254.699219 164.972656 254.5 164.972656 254.304688 165.089844 C 254.136719 165.191406 253.976562 165.378906 253.933594 165.570312 C 253.84375 165.957031 254.050781 166.492188 254.507812 166.554688 Z M 248.417969 167.527344 C 248.535156 167.402344 248.660156 167.285156 248.785156 167.179688 C 248.792969 167.175781 248.796875 167.167969 248.808594 167.160156 C 248.824219 167.140625 248.851562 167.125 248.863281 167.121094 C 248.925781 167.074219 248.988281 167.03125 249.058594 166.988281 C 249.203125 166.894531 249.347656 166.8125 249.503906 166.734375 C 249.519531 166.730469 249.597656 166.683594 249.65625 166.65625 C 249.636719 166.667969 249.636719 166.667969 249.695312 166.644531 C 249.742188 166.628906 249.785156 166.609375 249.832031 166.589844 C 249.984375 166.539062 250.136719 166.492188 250.292969 166.453125 C 250.371094 166.429688 250.449219 166.414062 250.527344 166.398438 C 250.566406 166.394531 250.609375 166.382812 250.644531 166.378906 C 250.652344 166.378906 250.660156 166.378906 250.667969 166.378906 C 250.71875 166.386719 250.84375 166.355469 250.878906 166.355469 C 250.960938 166.351562 251.039062 166.351562 251.121094 166.347656 C 251.300781 166.347656 251.476562 166.355469 251.660156 166.371094 C 252.078125 166.421875 252.476562 165.972656 252.460938 165.570312 C 252.441406 165.09375 252.109375 164.816406 251.660156 164.769531 C 250.0625 164.59375 248.398438 165.234375 247.292969 166.390625 C 247.003906 166.691406 246.964844 167.226562 247.292969 167.523438 C 247.601562 167.816406 248.109375 167.847656 248.417969 167.527344 Z M 239.933594 179.691406 C 240.386719 179.691406 240.710938 179.320312 240.734375 178.886719 C 240.75 178.601562 240.75 178.304688 240.769531 178.011719 C 240.785156 177.796875 240.8125 177.589844 240.828125 177.382812 C 240.835938 177.324219 240.84375 177.257812 240.855469 177.199219 C 240.878906 177.070312 240.902344 176.941406 240.929688 176.816406 C 240.980469 176.570312 241.042969 176.324219 241.121094 176.082031 C 241.164062 175.945312 241.214844 175.804688 241.265625 175.671875 C 241.273438 175.644531 241.277344 175.632812 241.28125 175.625 C 241.289062 175.613281 241.289062 175.601562 241.300781 175.585938 C 241.332031 175.515625 241.363281 175.453125 241.394531 175.382812 C 241.523438 175.132812 241.667969 174.886719 241.828125 174.652344 C 241.828125 174.652344 241.902344 174.542969 241.914062 174.527344 C 241.957031 174.472656 242 174.421875 242.046875 174.367188 C 242.160156 174.238281 242.269531 174.121094 242.394531 174.003906 C 242.703125 173.703125 242.691406 173.171875 242.394531 172.871094 C 242.085938 172.5625 241.578125 172.570312 241.261719 172.871094 C 240.300781 173.796875 239.679688 175.023438 239.394531 176.324219 C 239.207031 177.171875 239.167969 178.023438 239.125 178.886719 C 239.105469 179.320312 239.503906 179.691406 239.933594 179.691406 Z M 241.507812 186.363281 C 241.871094 186.128906 242.027344 185.652344 241.796875 185.269531 C 241.746094 185.1875 241.710938 185.101562 241.667969 185.019531 C 241.644531 184.96875 241.625 184.925781 241.605469 184.878906 C 241.550781 184.738281 241.496094 184.601562 241.449219 184.460938 C 241.335938 184.113281 241.246094 183.75 241.183594 183.386719 C 241.171875 183.328125 241.164062 183.277344 241.15625 183.222656 C 241.15625 183.222656 241.15625 183.222656 241.15625 183.21875 L 241.15625 183.210938 C 241.144531 183.09375 241.132812 182.976562 241.121094 182.859375 C 241.101562 182.609375 241.101562 182.355469 241.105469 182.105469 C 241.117188 181.6875 240.726562 181.28125 240.304688 181.304688 C 239.863281 181.324219 239.519531 181.65625 239.503906 182.105469 C 239.476562 183.039062 239.613281 183.996094 239.90625 184.890625 C 240.039062 185.296875 240.195312 185.710938 240.414062 186.082031 C 240.625 186.445312 241.144531 186.605469 241.507812 186.363281 Z M 241.886719 188.058594 C 241.503906 188.304688 241.402344 188.753906 241.597656 189.152344 C 242.167969 190.304688 242.789062 191.496094 243.796875 192.324219 C 243.96875 192.460938 244.140625 192.558594 244.363281 192.558594 C 244.5625 192.558594 244.796875 192.472656 244.929688 192.324219 C 245.199219 192.03125 245.277344 191.472656 244.929688 191.191406 C 244.699219 190.996094 244.488281 190.789062 244.296875 190.566406 C 244.253906 190.515625 244.210938 190.464844 244.167969 190.410156 C 244.152344 190.390625 244.128906 190.363281 244.113281 190.339844 C 244.015625 190.210938 243.933594 190.085938 243.847656 189.949219 C 243.519531 189.4375 243.25 188.890625 242.976562 188.347656 C 242.789062 187.972656 242.222656 187.839844 241.886719 188.058594 Z M 250.773438 196.433594 C 250.441406 196.242188 250.117188 196.039062 249.796875 195.824219 C 249.628906 195.710938 249.46875 195.597656 249.308594 195.488281 C 249.230469 195.429688 249.148438 195.371094 249.070312 195.308594 C 249.042969 195.289062 249.023438 195.273438 248.996094 195.25 C 248.984375 195.242188 248.96875 195.230469 248.945312 195.214844 C 248.339844 194.734375 247.761719 194.210938 247.222656 193.648438 C 246.933594 193.34375 246.378906 193.332031 246.089844 193.648438 C 245.789062 193.972656 245.78125 194.460938 246.089844 194.78125 C 247.226562 195.96875 248.535156 196.992188 249.957031 197.816406 C 250.320312 198.023438 250.847656 197.914062 251.050781 197.527344 C 251.265625 197.148438 251.164062 196.65625 250.773438 196.433594 Z M 257.421875 198.652344 C 256.851562 198.921875 256.085938 198.914062 255.410156 198.730469 C 254.628906 198.515625 253.984375 198.148438 253.246094 197.710938 C 252.886719 197.496094 252.355469 197.621094 252.152344 198 C 251.949219 198.382812 252.054688 198.863281 252.441406 199.09375 C 253.289062 199.601562 254.1875 200.09375 255.152344 200.316406 C 256.195312 200.5625 257.257812 200.5 258.230469 200.035156 C 258.609375 199.851562 258.734375 199.28125 258.515625 198.9375 C 258.265625 198.550781 257.828125 198.457031 257.421875 198.652344 Z M 261.59375 193.808594 C 261.417969 193.707031 261.167969 193.664062 260.972656 193.730469 C 260.535156 193.871094 260.34375 194.261719 260.414062 194.695312 C 260.414062 194.664062 260.40625 194.632812 260.402344 194.601562 C 260.414062 194.703125 260.402344 194.796875 260.398438 194.898438 C 260.382812 194.972656 260.363281 195.046875 260.34375 195.125 C 260.332031 195.160156 260.3125 195.203125 260.300781 195.246094 C 260.300781 195.25 260.296875 195.257812 260.296875 195.261719 C 260.199219 195.464844 260.078125 195.664062 259.953125 195.851562 C 259.707031 196.21875 259.445312 196.578125 259.269531 196.988281 C 259.183594 197.195312 259.125 197.382812 259.191406 197.609375 C 259.242188 197.796875 259.386719 198 259.558594 198.089844 C 259.746094 198.1875 259.96875 198.234375 260.179688 198.167969 C 260.363281 198.109375 260.578125 197.988281 260.660156 197.800781 C 260.878906 197.28125 261.246094 196.851562 261.527344 196.367188 C 261.695312 196.085938 261.839844 195.777344 261.925781 195.460938 C 262.03125 195.070312 262.035156 194.691406 261.96875 194.296875 C 261.933594 194.109375 261.757812 193.910156 261.59375 193.808594 Z M 260.300781 192.089844 C 260.503906 192.457031 261.039062 192.605469 261.394531 192.375 C 261.769531 192.136719 261.902344 191.671875 261.683594 191.28125 C 261.144531 190.3125 260.414062 189.441406 259.542969 188.757812 C 259.367188 188.621094 259.207031 188.523438 258.976562 188.523438 C 258.777344 188.523438 258.542969 188.609375 258.410156 188.757812 C 258.269531 188.914062 258.164062 189.113281 258.175781 189.324219 C 258.1875 189.523438 258.246094 189.761719 258.410156 189.890625 C 258.902344 190.277344 259.339844 190.71875 259.722656 191.207031 C 259.933594 191.488281 260.125 191.785156 260.300781 192.089844 Z M 254.015625 189.046875 C 254.019531 189.046875 254.019531 189.046875 254.027344 189.046875 C 254.003906 189.058594 253.988281 189.0625 253.96875 189.074219 C 254.003906 189.0625 254.035156 189.058594 254.074219 189.046875 C 254.382812 189.019531 254.703125 189.03125 255.007812 189.042969 C 255.375 189.050781 255.738281 189.085938 256.101562 189.128906 C 256.296875 189.148438 256.542969 189.019531 256.667969 188.890625 C 256.808594 188.753906 256.914062 188.523438 256.902344 188.324219 C 256.894531 188.117188 256.828125 187.902344 256.667969 187.757812 C 256.503906 187.605469 256.328125 187.550781 256.101562 187.523438 C 255.664062 187.476562 255.234375 187.445312 254.789062 187.433594 C 254.269531 187.421875 253.738281 187.402344 253.265625 187.640625 C 252.894531 187.835938 252.753906 188.390625 252.980469 188.738281 C 253.21875 189.09375 253.636719 189.207031 254.015625 189.046875 Z M 251.234375 189.035156 C 251.035156 188.992188 250.777344 188.988281 250.613281 189.117188 C 249.785156 189.746094 249.011719 190.425781 248.304688 191.191406 C 248.160156 191.34375 248.070312 191.542969 248.070312 191.757812 C 248.070312 191.953125 248.15625 192.191406 248.304688 192.324219 C 248.617188 192.605469 249.132812 192.648438 249.4375 192.324219 C 250.066406 191.644531 250.757812 191.015625 251.488281 190.449219 C 251.46875 190.464844 251.453125 190.472656 251.429688 190.488281 C 251.601562 190.363281 251.730469 190.234375 251.789062 190.019531 C 251.839844 189.828125 251.820312 189.570312 251.707031 189.398438 C 251.597656 189.230469 251.433594 189.078125 251.234375 189.035156 Z M 246.058594 196.851562 C 245.871094 196.753906 245.644531 196.707031 245.4375 196.769531 C 245.375 196.796875 245.308594 196.824219 245.246094 196.851562 C 245.121094 196.925781 245.027344 197.015625 244.957031 197.136719 C 244.515625 197.71875 244.195312 198.410156 244.015625 199.121094 C 243.964844 199.328125 243.992188 199.558594 244.097656 199.742188 C 244.199219 199.90625 244.386719 200.066406 244.578125 200.109375 C 244.785156 200.15625 245.015625 200.148438 245.199219 200.03125 C 245.367188 199.917969 245.511719 199.75 245.566406 199.546875 C 245.621094 199.328125 245.695312 199.117188 245.78125 198.90625 C 245.933594 198.570312 246.121094 198.25 246.347656 197.949219 C 246.464844 197.796875 246.472656 197.507812 246.425781 197.332031 C 246.378906 197.144531 246.234375 196.945312 246.058594 196.851562 Z M 243.59375 201.847656 C 243.179688 201.75 242.71875 201.96875 242.609375 202.40625 C 242.542969 202.675781 242.464844 202.9375 242.367188 203.191406 C 242.347656 203.257812 242.320312 203.320312 242.292969 203.386719 C 242.292969 203.390625 242.292969 203.390625 242.289062 203.394531 C 242.28125 203.40625 242.277344 203.417969 242.269531 203.433594 C 242.210938 203.566406 242.148438 203.695312 242.085938 203.828125 C 241.957031 204.074219 241.816406 204.308594 241.667969 204.535156 C 241.59375 204.648438 241.511719 204.753906 241.4375 204.859375 C 241.425781 204.875 241.410156 204.890625 241.402344 204.910156 C 241.351562 204.96875 241.304688 205.027344 241.25 205.085938 C 240.980469 205.398438 240.914062 205.90625 241.25 206.21875 C 241.550781 206.496094 242.09375 206.558594 242.382812 206.21875 C 243.222656 205.238281 243.839844 204.089844 244.152344 202.835938 C 244.253906 202.421875 244.023438 201.941406 243.59375 201.847656 Z M 239.894531 207.527344 C 239.511719 207.324219 239.03125 207.429688 238.800781 207.816406 C 238.675781 208.011719 238.542969 208.207031 238.40625 208.394531 C 238.078125 208.800781 237.710938 209.167969 237.304688 209.492188 C 237.25 209.53125 237.199219 209.574219 237.144531 209.609375 C 236.96875 209.734375 236.835938 209.882812 236.777344 210.09375 C 236.722656 210.285156 236.742188 210.539062 236.855469 210.710938 C 236.96875 210.882812 237.132812 211.03125 237.335938 211.082031 C 237.539062 211.128906 237.78125 211.125 237.957031 211 C 238.859375 210.371094 239.617188 209.574219 240.183594 208.628906 C 240.398438 208.265625 240.273438 207.730469 239.894531 207.527344 Z M 234.773438 211.140625 C 234.546875 211.089844 234.355469 211.125 234.152344 211.21875 C 234.023438 211.277344 233.902344 211.335938 233.773438 211.390625 C 233.28125 211.59375 232.777344 211.757812 232.257812 211.882812 C 231.847656 211.984375 231.570312 212.46875 231.695312 212.871094 C 231.835938 213.296875 232.246094 213.539062 232.683594 213.433594 C 233.476562 213.246094 234.234375 212.960938 234.964844 212.609375 C 235.136719 212.523438 235.285156 212.308594 235.332031 212.128906 C 235.386719 211.9375 235.367188 211.679688 235.253906 211.507812 C 235.140625 211.335938 234.980469 211.183594 234.773438 211.140625 Z M 243.535156 171.878906 C 243.980469 171.980469 244.386719 171.742188 244.523438 171.316406 C 244.539062 171.273438 244.558594 171.230469 244.574219 171.1875 C 244.664062 170.984375 244.777344 170.792969 244.910156 170.609375 C 245.042969 170.445312 245.191406 170.296875 245.359375 170.160156 C 245.539062 170.027344 245.726562 169.914062 245.929688 169.824219 C 246.101562 169.746094 246.25 169.519531 246.296875 169.34375 C 246.351562 169.152344 246.328125 168.894531 246.21875 168.722656 C 246.105469 168.554688 245.941406 168.402344 245.738281 168.355469 C 245.667969 168.351562 245.59375 168.339844 245.523438 168.328125 C 245.378906 168.328125 245.242188 168.359375 245.117188 168.433594 C 244.097656 168.902344 243.324219 169.835938 242.976562 170.886719 C 242.847656 171.285156 243.132812 171.78125 243.535156 171.878906 Z M 243.535156 171.878906 " fill-opacity="1" fill-rule="nonzero"/></g><g clip-path="url(#9cea82581a)"><path fill="#8c82fc" d="M 300.171875 155.453125 C 299.808594 153.417969 298.375 151.820312 296.605469 150.84375 C 294.796875 149.84375 292.71875 149.390625 290.660156 149.214844 C 290.855469 148.359375 291.046875 147.496094 291.242188 146.640625 C 291.453125 145.722656 291.730469 144.789062 291.792969 143.84375 C 291.90625 142.179688 290.761719 140.828125 289.066406 140.828125 C 287.441406 140.824219 286.179688 142.117188 285.539062 143.5 C 285.167969 144.308594 284.949219 145.171875 284.890625 146.050781 C 284.46875 145.746094 284.007812 145.484375 283.527344 145.273438 C 282.230469 144.71875 280.542969 144.527344 279.445312 145.605469 C 278.351562 146.679688 278.398438 148.363281 279.015625 149.667969 C 279.21875 150.101562 279.488281 150.558594 279.804688 150.972656 C 279.773438 151.015625 279.742188 151.0625 279.707031 151.105469 C 277.359375 152.628906 275.632812 155.039062 275.585938 157.832031 C 275.5625 158.90625 276.199219 160.808594 276.199219 160.808594 C 276.949219 162.398438 278.324219 163.511719 279.96875 164.265625 C 280.558594 164.535156 281.15625 164.785156 281.765625 165.011719 C 281.839844 165.046875 281.914062 165.074219 281.984375 165.089844 C 283.644531 165.6875 285.363281 166.109375 287.125 166.269531 C 291.402344 166.667969 295.910156 165.214844 298.542969 161.675781 C 299.851562 159.917969 300.5625 157.640625 300.171875 155.453125 Z M 286.785156 148.347656 C 286.367188 147.113281 286.363281 145.796875 286.820312 144.558594 C 287.167969 143.625 287.945312 142.421875 289.066406 142.425781 C 290.398438 142.429688 290.246094 143.777344 290.035156 144.71875 C 289.710938 146.1875 289.375 147.652344 289.042969 149.121094 C 288.164062 149.105469 287.285156 149.136719 286.410156 149.230469 C 286.710938 149.058594 286.914062 148.730469 286.785156 148.347656 Z M 278.074219 160.921875 C 276.972656 159.363281 276.910156 157.179688 277.726562 155.480469 C 278.027344 154.863281 278.421875 154.304688 278.878906 153.808594 C 278.667969 155.246094 278.769531 156.722656 278.921875 158.164062 C 279.074219 159.5625 279.222656 161.050781 279.882812 162.316406 C 279.921875 162.390625 279.964844 162.472656 280.007812 162.546875 C 279.242188 162.117188 278.554688 161.601562 278.074219 160.921875 Z M 281.214844 146.445312 C 282.847656 146.171875 284.652344 147.59375 285.320312 148.972656 C 285.414062 149.160156 285.554688 149.273438 285.714844 149.324219 C 284.550781 149.484375 283.398438 149.730469 282.273438 150.066406 C 282.121094 150 281.941406 149.988281 281.734375 150.066406 C 281.632812 150.105469 281.535156 150.152344 281.433594 150.195312 C 281.375 150.191406 281.316406 150.191406 281.257812 150.203125 C 281.210938 150.136719 281.15625 150.078125 281.109375 150.015625 C 280.953125 149.804688 280.804688 149.59375 280.667969 149.375 C 280.429688 148.972656 280.226562 148.539062 280.179688 148.070312 C 280.105469 147.332031 280.425781 146.578125 281.214844 146.445312 Z M 283.292969 163.84375 C 283.066406 163.777344 282.839844 163.699219 282.601562 163.625 C 282.09375 163.070312 281.710938 162.320312 281.359375 161.671875 C 280.78125 160.613281 280.652344 159.34375 280.527344 158.164062 C 280.390625 156.917969 280.253906 155.59375 280.414062 154.347656 C 280.488281 153.777344 280.59375 152.800781 280.871094 152.238281 C 281.007812 152.164062 281.144531 152.089844 281.277344 152.019531 C 281.386719 152.03125 281.496094 152.019531 281.625 151.96875 C 282.449219 151.675781 283.300781 151.429688 284.167969 151.234375 C 283.101562 153.011719 283.210938 155.519531 283.300781 157.480469 C 283.421875 159.933594 284.140625 162.304688 285.402344 164.394531 C 284.691406 164.25 283.984375 164.0625 283.292969 163.84375 Z M 289.554688 164.699219 C 288.871094 164.75 288.1875 164.738281 287.515625 164.6875 C 286.015625 162.652344 285.074219 160.253906 284.921875 157.722656 C 284.847656 156.527344 284.835938 155.300781 284.957031 154.109375 C 285.066406 153.039062 285.359375 152.007812 286.207031 151.292969 C 286.375 151.152344 286.449219 150.992188 286.46875 150.835938 C 288.125 150.644531 289.796875 150.652344 291.4375 150.886719 C 290.046875 152.445312 290.222656 155.304688 290.855469 157.101562 C 291.691406 159.472656 293.535156 161.332031 295.847656 162.226562 C 294.105469 163.699219 291.828125 164.550781 289.554688 164.699219 Z M 298.015625 159.472656 C 297.757812 160.003906 297.445312 160.488281 297.085938 160.941406 C 295.007812 160.367188 293.242188 158.886719 292.457031 156.851562 C 291.863281 155.316406 291.425781 152.285156 293.347656 151.46875 C 293.421875 151.4375 293.480469 151.386719 293.535156 151.335938 C 293.609375 151.355469 293.691406 151.371094 293.765625 151.398438 C 295.308594 151.851562 296.933594 152.632812 297.878906 154 C 299 155.621094 298.855469 157.753906 298.015625 159.472656 Z M 298.015625 159.472656 " fill-opacity="1" fill-rule="nonzero"/></g></svg>